<?xml version="1.0" encoding="UTF-8"?>
<svg id="Capa_2" data-name="Capa 2" xmlns="http://www.w3.org/2000/svg" viewBox="0 0 96.33 98.38">
  <defs>
    <style>
      .cls-1 {
        fill:  #0c1d36;
      }
    </style>
  </defs>
  <g id="Capa_1-2" data-name="Capa 1">
    <g>
      <path class="cls-1" d="m78.13,41.79l-52.17,53.1c-.47.48-1.09.79-1.75.88l-18.73,2.6c-3.26.14-5.86-2.7-5.44-5.94l4-17.92c.13-.57.42-1.1.84-1.51L57.59,21.25c1.19-1.17,3.1-1.16,4.28.02l16.24,16.24c1.18,1.18,1.19,3.09.02,4.28Z"/>
      <path class="cls-1" d="m76.54,7.31h9.78c5.61,0,10.17,4.56,10.17,10.17v10.04c0,.81-.65,1.46-1.46,1.46h-27.2c-.81,0-1.46-.65-1.46-1.46v-10.04c0-5.61,4.56-10.17,10.17-10.17Z" transform="translate(36.68 -52.26) rotate(45)"/>
      <path class="cls-1" d="m12.52,1.06c.9.45,3.38,1.55,7.45,3.43,4.07,1.88,8.04,3.52,11.81,4.94,3.77,1.42,8.4,3.01,13.79,4.76,1.5.44,2.7,1.12,3.62,2.06.75.87,1.13,1.77,1.06,2.75-.07.98-.4,1.77-1.1,2.38-1.11.96-2.87,1.16-5.22.55-2.36-.61-6.76-2.29-13.17-4.99-6.41-2.7-11.76-4.88-16.06-6.45.68,3.38,1.51,7.04,2.48,10.98.97,3.94,1.73,7.05,2.27,9.33.55,2.28,1.03,4.6,1.47,6.87.44,2.27.58,4.08.43,5.32-.14,1.25-.54,2.2-1.3,2.85-1.05.91-2.33,1.3-3.79,1.14-1.46-.16-2.67-.74-3.63-1.84-.86-.99-1.37-2.17-1.6-3.5-.87-5.35-2.29-11.35-4.38-17.99-2.08-6.64-3.31-11.59-3.78-14.84-.48-3.25.19-5.66,1.93-7.17C7.05-.2,9.64-.51,12.6.8l-.08.27Z"/>
      <path class="cls-1" d="m86.6,97.02c-.91-.41-3.43-1.43-7.57-3.15-4.13-1.72-8.16-3.23-12.04-4.56s-8.56-2.75-14-4.31c-1.56-.44-2.74-1.13-3.58-2.03-.79-.85-1.19-1.73-1.16-2.71.04-.98.44-1.78,1.12-2.41s1.67-.92,2.92-.93c1.25-.01,2.93.32,5.03.99,2.1.67,4.3,1.46,6.56,2.3,2.26.84,5.32,1.98,9.19,3.43s7.58,2.72,11.13,3.82c-1.09-4.56-2.64-10.06-4.59-16.44-1.95-6.38-3.1-10.78-3.45-13.3-.35-2.52.1-4.3,1.28-5.4,1.07-1,2.39-1.49,3.92-1.44s2.81.64,3.81,1.71c.89.96,1.45,2.12,1.67,3.49,1.06,5.32,2.71,11.26,4.98,17.87,2.27,6.61,3.68,11.51,4.27,14.74.59,3.23.07,5.61-1.61,7.19-2.08,1.94-4.66,2.34-7.72,1.2l-.16-.06Z"/>
    </g>
  </g>
</svg>