<?xml version="1.0" encoding="UTF-8"?>
<svg id="Capa_2" data-name="Capa 2" xmlns="http://www.w3.org/2000/svg" viewBox="0 0 101.09 158.69">
  <defs>
    <style>
      .cls-1 {
        fill: #0c1d36;
      }
    </style>
  </defs>
  <g id="Capa_1-2" data-name="Capa 1">
    <g>
      <path class="cls-1" d="m25.78,25.07l20.47,12.81c1.81,1.13,3.82,1.91,5.94,2.21.61.09,1.26.15,1.94.18.02,0,.03,0,.05,0,2.25.1,4.5-.37,6.57-1.24,4.18-1.77,7.49-3.46,9.82-4.73,5.77-3.15,8.26-5.21,13.69-7.53,4.05-1.73,7.53-2.67,9.79-3.19,1.88-.38,3.77.41,4.72,1.94.93,1.51.57,3.11.34,3.79-.07.21-.19.38-.35.53-1,.87-2.87,2.36-4.84,3.32-4.12,2.01-8.02,1.87-12.35,2.26-2.36.21-5.65.99-9.6,2.21-3.38,1.18-6.76,2.36-10.14,3.54-2.56.89-5.28,1.3-7.98,1.08-.03,0-.07,0-.1,0-.46-.04-.91-.09-1.34-.15-2.51-.34-4.9-1.22-7.04-2.56-6.86-4.29-13.71-8.58-20.57-12.87-.33-.2-.49-.59-.42-.97h0c.12-.64.86-.96,1.41-.61Z"/>
      <path class="cls-1" d="m98.11,13.17c-2.94-4.8-7.02-7.01-8.67-7.8-2.7-1.43-6.19-2.96-10.42-4.06-.07-.02-.14-.04-.21-.05-8.5-2.17-17.48-1.48-25.63,1.76-3.49,1.39-7.26,3.14-11.18,5.36-6.27,3.55-11.31,7.39-15.2,10.79-.74.65-1.2,3.03-.81,3.41,2.56,2.54,4.35,3.32,10.83,7.2,8.3,4.97,10.67,7.25,15.73,8.15.77.14,1.36.09,2.22-.18,9.44-2.86,16.32-6.53,21.06-9.56,5.21-3.33,9.95-7.23,16.63-6.95,3.17.13,5.82,1.17,7.76,2.2.4.21.88-.09.86-.54-.1-2.17-.63-5.89-2.98-9.73Zm-32.78-4.33c-4.29,3.42-9.04,6.95-14.26,10.47-1.08.73-2.19,1.46-3.33,2.2-.76,1.07-1.75,1.99-2.22,2.41-.56.5-2.83,1.8-4.7,1.89-1.57.94-3.16,1.87-4.81,2.8-.92-.52-1.84-1.04-2.75-1.55,1.66-.82,3.38-1.71,5.14-2.66-.59-1.61.2-4,2.6-5.96,2.51-2.04,5.04-2.11,6.56-1.21.56.33.88.72,1.04,1.15.62-.4,1.24-.8,1.86-1.21,4.9-3.25,9.26-6.53,13.09-9.68.91-.41,1.76-.11,1.96.38.17.41-.14.9-.19.98Z"/>
      <path class="cls-1" d="m26.16,31.35c4.79.04,7.23.39,9.48.37,1.41-.01,5.59,2.32.72,2.73-3.16.22-9.59.79-15.99,2.49,0,0-4.91,1.3-7.71,3.78-1.28,1.13-2.23,2.47-2.23,2.47-.37.55-2.45,3.3-2.25,7.9.21,4.9,1.85,10.58,4.88,17.07,3.09,6.62,6.83,12.78,11.19,18.57,4.36,5.79,8.4,10.44,12.14,13.98,3.73,3.53,8,7.75,12.81,12.65,4.8,4.9,8.82,9.49,12.07,13.84,2.1,3.1,3.66,5.68,4.67,7.84,2.25,4.81,2.98,9.3,2.2,13.48-.78,4.17-3.38,7.94-8.46,9.58-12.68,4.1-35.91-14.17-42.27-18.86-1.6-1.12-2.67-2.33-3.2-3.61-.68-1.46-.42-2.43.85-2.94.89-.41,2.29-.77,3.34.24,1.69,1.63,16.64,12.37,22.69,15.67,2.34,1.27,7.33,3.4,9.96,3.75,1.63.21,4.52-.24,6.47-1.14,4.08-1.88,4.98-5.35,2.66-10.3-1.37-2.93-3.71-6.25-6.94-9.93-1.82-2.04-7.58-7.77-17.33-17.26-9.75-9.48-17.24-18.14-22.49-25.98-2.79-4.13-5.23-8.43-7.29-12.82C1.7,65.36-.32,56.89.04,49.52c.36-7.37,3.69-12.55,10.02-15.47,1.93-.76,4.52-1.57,7.66-2,3.16-.43,6.36-.72,8.44-.7Z"/>
    </g>
  </g>
</svg>